#!OML:ASF F:\VICON\USERDATA\INSTALL\rory3\rory3.ASF
:FULLY-SPECIFIED
:DEGREES
1700
root 0.0690806 18.4428 5.22841 6.1024 51.9375 -8.7594
lowerback 10.4958 6.84229 -2.951
upperback 4.73575 8.8638 -6.69904
thorax -0.216371 4.55893 -6.26608
lowerneck -7.32142 -4.19969 -8.41418
upperneck 28.6055 -4.90518 4.65561
head 10.7166 -2.39198 2.61294
rclavicle -6.36111e-015 -1.11319e-014
rhumerus 29.052 24.3584 -43.4744
rradius 48.3091
rwrist 39.2264
rhand -44.0328 365.248
rfingers 7.12502
rthumb -16.8528 -744.041
lclavicle -6.36111e-015 -1.11319e-014
lhumerus -17.0996 -24.9587 67.6514
lradius 68.8184
lwrist -9.08803
lhand -30.1671 15.924
lfingers 7.12502
lthumb -3.47883 45.8753
rfemur -9.40914 5.48545 18.8807
rtibia 18.7389
rfoot -24.7088 -36.622
rtoes -0.411881
lfemur -37.4617 -19.3523 5.39008
ltibia 25.5951
lfoot -3.86047 -9.40396
ltoes -9.48434
1701
root 0.0847327 18.4468 5.22991 6.12514 51.8884 -8.64365
lowerback 10.4489 6.86887 -2.9306
upperback 4.74027 8.90421 -6.65354
thorax -0.187528 4.5784 -6.22584
lowerneck -7.33189 -4.26346 -8.26448
upperneck 28.3551 -5.05648 4.73469
head 10.6319 -2.43915 2.59363
rclavicle 6.04305e-014 -1.59028e-015
rhumerus 29.1783 21.8854 -45.6435
rradius 48.3991
rwrist 39.2353
rhand -44.0284 364.763
rfingers 7.12502
rthumb -16.8486 -744.526
lclavicle 6.04305e-014 -1.59028e-015
lhumerus -17.0612 -24.823 67.7854
lradius 68.6215
lwrist -8.80417
lhand -30.1363 15.7675
lfingers 7.12502
lthumb -3.44913 45.7194
rfemur -9.14698 5.63388 18.7806
rtibia 18.4901
rfoot -24.7975 -36.7073
rtoes -0.309716
lfemur -37.3336 -19.25 5.16465
ltibia 25.6712
lfoot -3.83669 -9.56748
ltoes -9.44322
1702
root 0.0968434 18.4488 5.23068 6.1875 51.843 -8.50903
lowerback 10.3949 6.89256 -2.93881
upperback 4.74478 8.93777 -6.58431
thorax -0.163971 4.59292 -6.14357
lowerneck -7.34499 -4.27071 -8.29185
upperneck 28.0729 -5.12606 4.92885
head 10.5388 -2.45529 2.65566
rclavicle -4.29375e-014 -6.36111e-015
rhumerus 29.2727 19.3836 -47.9848
rradius 48.5079
rwrist 39.4792
rhand -43.9698 364.706
rfingers 7.12502
rthumb -16.7921 -744.587
lclavicle -4.29375e-014 -6.36111e-015
lhumerus -17.0543 -24.7539 67.9081
lradius 68.4496
lwrist -8.47109
lhand -30.2915 15.7813
lfingers 7.12502
lthumb -3.59899 45.7307
rfemur -8.95649 5.87714 18.6689
rtibia 18.2904
rfoot -24.9235 -36.8808
rtoes -0.0571153
lfemur -37.2646 -19.1301 4.94532
ltibia 25.7669
lfoot -3.84799 -9.71918
ltoes -9.04462
1703
root 0.107603 18.4471 5.22999 6.04166 51.7274 -8.68996
lowerback 10.321 6.92769 -2.76616
upperback 4.73901 9.00206 -6.45637
thorax -0.121084 4.62409 -6.09785
lowerneck -7.35672 -4.2287 -8.35418
upperneck 27.7067 -5.14376 5.20748
head 10.4135 -2.44316 2.75873
rclavicle -5.64548e-014 -1.11319e-014
rhumerus 29.4138 16.8809 -50.5183
rradius 48.6248
rwrist 39.9015
rhand -44.051 365.182
rfingers 7.12502
rthumb -16.8703 -744.105
lclavicle -5.64548e-014 -1.11319e-014
lhumerus -17.0358 -24.5685 68.0158
lradius 68.3138
lwrist -8.2906
lhand -30.1286 15.7111
lfingers 7.12502
lthumb -3.44163 45.6631
rfemur -8.85902 6.18629 18.7675
rtibia 18.1521
rfoot -25.0857 -37.0476
rtoes 0.242835
lfemur -37.2097 -18.8713 4.93632
ltibia 25.8704
lfoot -3.89488 -9.88377
ltoes -8.85175
1704
root 0.117134 18.4456 5.229 6.02806 51.6301 -8.76979
lowerback 10.2264 6.92171 -2.60866
upperback 4.71983 9.01131 -6.36731
thorax -0.0812585 4.62844 -6.07791
lowerneck -7.41263 -4.26588 -8.48885
upperneck 27.4563 -5.24966 5.4691
head 10.3507 -2.48006 2.85841
rclavicle 5.56597e-014 2.70347e-014
rhumerus 29.6625 14.7849 -52.7739
rradius 48.9504
rwrist 39.8064
rhand -44.1548 365.159
rfingers 7.12502
rthumb -16.9702 -744.12
lclavicle 5.56597e-014 2.70347e-014
lhumerus -17.0573 -24.302 68.1142
lradius 68.1906
lwrist -8.12637
lhand -30.0134 15.9466
lfingers 7.12502
lthumb -3.33041 45.9003
rfemur -8.87798 6.34834 18.7919
rtibia 18.1097
rfoot -25.2108 -37.0684
rtoes 0.418239
lfemur -37.2425 -18.6968 4.93293
ltibia 25.9833
lfoot -3.92118 -9.99674
ltoes -8.90199
1705
root 0.125674 18.4452 5.23126 6.06292 51.5995 -8.74863
lowerback 10.2167 6.89426 -2.48077
upperback 4.66451 8.98152 -6.33654
thorax -0.123087 4.61348 -6.11503
lowerneck -7.46677 -4.33877 -8.56154
upperneck 27.3277 -5.39474 5.66178
head 10.3328 -2.53501 2.92
rclavicle -4.29375e-014 -1.90833e-014
rhumerus 29.8571 12.9073 -55.0368
rradius 49.3972
rwrist 39.2313
rhand -43.5901 364.918
rfingers 7.12502
rthumb -16.4266 -744.406
lclavicle -4.29375e-014 -1.90833e-014
lhumerus -17.1679 -24.2523 68.085
lradius 68.1289
lwrist -7.72777
lhand -29.9893 16.0466
lfingers 7.12502
lthumb -3.30717 46.0007
rfemur -8.88452 6.45023 18.7623
rtibia 18.1316
rfoot -25.4136 -37.0611
rtoes 0.804049
lfemur -37.2731 -18.5985 4.87194
ltibia 26.1009
lfoot -3.94539 -10.0831
ltoes -9.17314
1706
root 0.137285 18.4416 5.21604 6.1163 51.5652 -8.69804
lowerback 10.3267 6.86608 -2.12196
upperback 4.60055 8.96611 -6.38085
thorax -0.18929 4.61273 -6.37491
lowerneck -7.5127 -4.39329 -8.51287
upperneck 27.1748 -5.52637 5.82171
head 10.2983 -2.57504 2.95024
rclavicle 1.56642e-013 -7.15625e-014
rhumerus 30.0269 11.0119 -57.3845
rradius 49.7231
rwrist 38.7058
rhand -42.8383 363.866
rfingers 7.12502
rthumb -15.7026 -745.517
lclavicle 1.56642e-013 -7.15625e-014
lhumerus -17.2367 -24.3454 68.0394
lradius 68.0706
lwrist -7.27363
lhand -30.0432 15.8603
lfingers 7.12502
lthumb -3.35918 45.8136
rfemur -8.98924 6.43214 18.6571
rtibia 18.2205
rfoot -25.2668 -37.1404
rtoes 0.643921
lfemur -37.355 -18.572 4.78133
ltibia 26.1786
lfoot -3.88902 -10.0576
ltoes -8.96825
1707
root 0.146779 18.4381 5.20703 6.19844 51.5655 -8.67228
lowerback 10.2763 6.83421 -1.89649
upperback 4.58559 8.9468 -6.35525
thorax -0.150025 4.60672 -6.46213
lowerneck -7.56101 -4.44533 -8.5725
upperneck 26.9727 -5.65273 6.04794
head 10.2518 -2.61726 3.02245
rclavicle -1.03368e-013 7.4743e-014
rhumerus 30.3389 9.467 -59.3378
rradius 49.8043
rwrist 38.4714
rhand -43.1481 361.197
rfingers 7.12502
rthumb -16.001 -748.162
lclavicle -1.03368e-013 7.4743e-014
lhumerus -17.1919 -24.3016 68.0692
lradius 67.8829
lwrist -6.96636
lhand -29.875 15.5455
lfingers 7.12502
lthumb -3.19678 45.5012
rfemur -9.14498 6.41874 18.6111
rtibia 18.3576
rfoot -25.121 -37.2782
rtoes 0.3589
lfemur -37.4415 -18.5062 4.73614
ltibia 26.1841
lfoot -3.79936 -10.1103
ltoes -8.54788
1708
root 0.157246 18.4361 5.20194 6.30323 51.5477 -8.60902
lowerback 10.1529 6.80172 -1.78671
upperback 4.59221 8.92037 -6.27144
thorax -0.0769807 4.59361 -6.41286
lowerneck -7.53777 -4.49298 -8.62117
upperneck 26.7022 -5.74132 6.13241
head 10.1595 -2.65776 3.04589
rclavicle -2.54444e-014 3.49861e-014
rhumerus 30.7117 8.44877 -60.8155
rradius 49.7795
rwrist 38.0841
rhand -44.0527 359.094
rfingers 7.12502
rthumb -16.8719 -750.194
lclavicle -2.54444e-014 3.49861e-014
lhumerus -17.1489 -24.2128 68.1504
lradius 67.689
lwrist -6.54757
lhand -29.908 15.8179
lfingers 7.12502
lthumb -3.22858 45.7732
rfemur -9.34278 6.33218 18.5404
rtibia 18.6148
rfoot -25.0213 -37.3009
rtoes -0.0183899
lfemur -37.4303 -18.3761 4.62595
ltibia 26.0709
lfoot -3.6568 -10.1857
ltoes -8.09547
1709
root 0.161859 18.4402 5.20094 6.48299 51.3415 -8.27696
lowerback 10.2649 6.83804 -1.86311
upperback 4.57858 8.95328 -6.2911
thorax -0.156724 4.60816 -6.41221
lowerneck -7.56001 -4.55027 -8.52548
upperneck 26.5159 -5.86492 6.2146
head 10.1048 -2.6992 3.04058
rclavicle -5.24792e-014 3.02153e-014
rhumerus 30.9585 8.18395 -61.5084
rradius 50.0378
rwrist 36.8816
rhand -44.6171 357.898
rfingers 7.12502
rthumb -17.4152 -751.342
lclavicle -5.24792e-014 3.02153e-014
lhumerus -17.1909 -24.3441 68.0647
lradius 67.7016
lwrist -6.04494
lhand -29.8771 16.5463
lfingers 7.12502
lthumb -3.1988 46.5021
rfemur -9.37473 6.44579 18.2994
rtibia 18.7971
rfoot -25.017 -37.3041
rtoes -0.241326
lfemur -37.1733 -18.2202 4.27419
ltibia 25.957
lfoot -3.56582 -10.2419
ltoes -8.0892
